<svg xmlns="http://www.w3.org/2000/svg" width="32" height="21" fill="none"><path fill="#A6A6A6" d="m15.844 5.858-2.137 10.318h-2.586l2.14-10.318zm10.88 6.662 1.36-3.875.785 3.875zm2.884 3.656H32L29.913 5.858h-2.218c-.49 0-.91.31-1.087.75l-.004.007-3.878 9.56h2.714l.54-1.541h3.317zm-6.749-3.369c.011-2.724-3.648-2.873-3.622-4.09.009-.37.349-.765 1.096-.865a4.73 4.73 0 0 1 2.579.475l-.03-.014.454-2.188a6.6 6.6 0 0 0-2.417-.458h-.001c-2.557 0-4.355 1.404-4.37 3.412-.017 1.485 1.283 2.312 2.263 2.807 1.009.506 1.347.831 1.342 1.282-.007.694-.803.998-1.547 1.01h-.117c-.93 0-1.804-.24-2.568-.667l.029.014-.468 2.26c.838.348 1.81.548 2.828.548h.048-.002c2.716 0 4.493-1.384 4.502-3.529zM12.15 5.858 7.961 16.176H5.227L3.166 7.94c-.04-.401-.278-.736-.609-.903l-.006-.004a10.3 10.3 0 0 0-2.48-.865L0 6.156l.062-.299h4.4c.6 0 1.098.453 1.19 1.044l.002.007 1.09 5.97 2.69-7.022z"/></svg>